<?xml version="1.0" encoding="UTF-8" standalone="no"?>
<!-- Created with Inkscape (http://www.inkscape.org/) -->

<svg
   width="27.546265mm"
   height="26.730959mm"
   viewBox="0 0 27.546265 26.730959"
   version="1.1"
   id="svg1"
   inkscape:version="1.4.2 (f4327f4, 2025-05-13)"
   sodipodi:docname="logo-shield.svg"
   xmlns:inkscape="http://www.inkscape.org/namespaces/inkscape"
   xmlns:sodipodi="http://sodipodi.sourceforge.net/DTD/sodipodi-0.dtd"
   xmlns="http://www.w3.org/2000/svg"
   xmlns:svg="http://www.w3.org/2000/svg">
  <sodipodi:namedview
     id="namedview1"
     pagecolor="#ffffff"
     bordercolor="#000000"
     borderopacity="0.25"
     inkscape:showpageshadow="2"
     inkscape:pageopacity="0.0"
     inkscape:pagecheckerboard="0"
     inkscape:deskcolor="#d1d1d1"
     inkscape:document-units="mm"
     inkscape:zoom="0.68862935"
     inkscape:cx="370.3008"
     inkscape:cy="295.51456"
     inkscape:window-width="1920"
     inkscape:window-height="991"
     inkscape:window-x="-9"
     inkscape:window-y="-9"
     inkscape:window-maximized="1"
     inkscape:current-layer="layer1" />
  <defs
     id="defs1">
    <clipPath
       clipPathUnits="userSpaceOnUse"
       id="clipPath2">
      <path
         d="M 0,75.773 H 331.466 V 0 H 0 Z"
         transform="translate(-17.2383,-59.887802)"
         id="path2" />
    </clipPath>
    <clipPath
       clipPathUnits="userSpaceOnUse"
       id="clipPath4">
      <path
         d="M 0,75.773 H 331.466 V 0 H 0 Z"
         transform="translate(-44.373201,-17.4155)"
         id="path4" />
    </clipPath>
  </defs>
  <g
     inkscape:label="Layer 1"
     inkscape:groupmode="layer"
     id="layer1"
     transform="translate(-6.946981,-2.7593713)">
    <path
       id="path1"
       d="m 0,0 c -1.512,-1.838 -3.149,-4.5 -3.706,-7.84 -1.126,-6.754 2.597,-14.893 4.676,-18.27 2.078,-3.377 7.013,-10.477 7.013,-10.477 0,0 -8.052,8.832 -10.91,14.113 -2.857,5.282 -3.983,6.495 -3.81,12.556 0.086,2.996 1.187,5.927 2.278,8.127 C -2.972,-1.195 -1.485,-0.6 0,0 m 13.202,5.608 c 4.083,-0.47 9.026,-1.482 11.753,-3.664 5.195,-4.156 7.966,-6.927 8.312,-7.879 0.346,-0.952 3.031,-5.801 3.031,-5.801 0,0 -1.65,9.74 -5.098,13.434 -4.432,1.831 -8.831,3.739 -13.141,5.848 L 17.593,7.688 C 16.138,6.973 14.674,6.281 13.202,5.608 M 34.685,0.274 c 1.036,-1.794 2.089,-3.871 2.825,-5.949 1.992,-5.628 2.685,-9.871 2.685,-9.871 0,0 0.952,5.541 -0.174,10.304 -0.311,1.317 -0.643,2.595 -0.959,3.755 -1.46,0.584 -2.92,1.171 -4.377,1.761 M -3.948,-27.682 c 4.779,-6.671 9.455,-10.4 10.633,-11.503 1.385,-1.299 4.156,-2.165 4.156,-2.165 0,0 -6.304,1.216 -10.234,4.856 -1.763,2.771 -3.273,5.734 -4.555,8.812 m -4.554,24.264 c -0.241,-1.316 -0.479,-2.915 -0.632,-4.674 -0.198,1.413 -0.363,2.821 -0.496,4.217 z m 50.809,0.628 c 0.14,-1.286 0.274,-2.693 0.312,-3.664 0.086,-2.252 -0.433,-8.313 -0.433,-8.313 0,0 1.298,4.416 1.905,7.793 l 0.577,3.23 c -0.787,0.319 -1.573,0.637 -2.361,0.954 M 6.984,-44.464 c -0.051,0.167 -0.12,0.339 -0.213,0.517 -1.299,2.511 -3.117,3.377 -3.117,3.377 0,0 5.369,0.086 6.148,-2.598 0.314,-1.084 0.008,-2.337 -0.47,-3.447 -0.813,0.687 -1.594,1.406 -2.348,2.151 m 35.892,27.825 -2.422,0.141 2.108,-1.397 c 0.108,0.419 0.213,0.837 0.314,1.256 m -26.448,-0.163 c 1.493,0.963 3.14,1.705 4.897,2.18 -0.5,1.214 -1.386,2.403 -2.518,3.059 -1.646,0.953 -1.126,-2.771 -1.126,-2.771 0,0 -1.905,2.165 -2.078,3.377 -0.173,1.212 1.299,2.338 4.156,0.692 1.288,-0.74 2.118,-2.448 2.642,-4.1 0.279,0.057 0.561,0.107 0.845,0.15 -0.153,0.519 -0.278,1.003 -0.37,1.44 -0.779,3.723 -3.117,4.329 -6.667,4.416 -3.55,0.086 -3.377,-2.598 -2.164,-5.716 0.501,-1.287 1.311,-2.013 2.383,-2.727 m 14.347,2.105 c 1.485,-0.429 2.889,-1.048 4.183,-1.83 -3.209,4.107 -6.494,10.796 -12.688,15.528 -7.706,5.888 -21.214,-2.858 -20.521,-11.43 0.375,-4.644 3.775,-9.618 7.128,-15.033 0.233,0.984 0.55,1.936 0.942,2.848 -0.802,0.84 -1.316,1.275 -1.316,1.275 0,0 0.59,-0.281 1.504,-0.854 0.486,1.054 1.074,2.049 1.75,2.977 -0.92,0.195 -1.86,0.506 -2.648,0.994 -2.511,1.559 -4.936,5.022 -3.81,11.17 1.125,6.148 8.659,9.438 15.24,7.014 4.222,-1.556 7.269,-7.247 10.236,-12.659 m -4.862,0.684 c 0.657,0 1.304,-0.037 1.942,-0.108 -2.361,5.455 -4.24,8.899 -11.213,10.004 -7.1,1.126 -9.957,-5.801 -8.139,-11.603 0.813,-2.594 2.336,-4.028 3.772,-4.821 0.568,0.705 1.189,1.365 1.857,1.974 -1.498,1.024 -3.296,2.813 -4.071,5.792 -1.125,4.329 2.771,7.273 7.274,6.667 4.502,-0.606 4.502,-1.732 7.447,-7.793 l 0.07,-0.145 c 0.351,0.021 0.704,0.033 1.061,0.033 m 0,-4.535 c 4.646,0 8.72,-2.443 11.012,-6.112 l 4.226,1.943 0.072,0.221 c -0.116,0.015 -0.231,0.037 -0.341,0.063 -0.5,0.821 -1.067,1.598 -1.69,2.324 0.899,-0.388 1.775,-0.572 2.579,-0.632 0.142,0.475 0.278,0.951 0.41,1.428 -2.347,0.793 -5.329,2.436 -7.355,5.845 C 31.016,-7.061 25.821,1.598 17.075,2.377 8.33,3.157 -2.84,-2.385 -1.368,-13.208 c 0.918,-6.756 6.054,-13.209 9.784,-18.999 0.152,-3.954 1.614,-7.572 3.965,-10.431 -0.113,-2.359 -0.741,-4.03 -1.507,-5.212 0.986,-0.75 2.013,-1.457 3.083,-2.117 0.944,0.772 1.639,2.075 1.741,4.22 0.863,-0.62 1.784,-1.164 2.754,-1.622 -0.358,-1.818 -1.001,-3.216 -1.609,-4.212 0.276,-0.139 0.556,-0.275 0.838,-0.408 0.904,0.427 1.782,0.886 2.634,1.374 0.076,0.739 0.143,1.556 0.189,2.433 0.837,-0.271 1.7,-0.481 2.586,-0.625 l -0.002,-0.059 0.07,0.048 c 0.485,-0.077 0.978,-0.133 1.475,-0.17 -2.13,-1.574 -4.443,-2.953 -6.952,-4.102 -18.815,8.609 -26.648,30.171 -28.371,49.859 9.517,3.888 19.159,7.5 28.371,12.075 9.211,-4.575 18.853,-8.187 28.37,-12.075 -0.55,-6.276 -1.72,-12.744 -3.669,-18.92 l 7.481,3.441 C 51.419,-12.385 52.311,-5.776 52.6,0.842 41.4,5.563 28.723,10.075 17.681,15.885 6.637,10.075 -6.039,5.563 -17.238,0.842 c 1.13,-25.921 11.5,-51.715 34.919,-60.73 8.945,3.444 15.984,9.337 21.334,16.749 1.117,1.258 2.054,2.678 2.774,4.22 1.554,2.605 2.93,5.355 4.136,8.218 l -8.264,-6.335 c -2.073,-4.409 -6.554,-7.463 -11.748,-7.463 -7.166,0 -12.975,5.809 -12.975,12.975 0,7.166 5.809,12.976 12.975,12.976"
       style="fill:#4f4c4d;fill-opacity:1;fill-rule:evenodd;stroke:none"
       transform="matrix(0.35277776,0,0,-0.35277776,13.028164,8.363246)"
       clip-path="url(#clipPath2)" />
    <path
       id="path3"
       d="M 0,0 33.711,26.557 2.537,11.919 -9.916,19.677 Z"
       style="fill:#59c134;fill-opacity:1;fill-rule:evenodd;stroke:none"
       transform="matrix(0.35277776,0,0,-0.35277776,22.600754,23.346531)"
       clip-path="url(#clipPath4)" />
  </g>
</svg>
